<svg width="29" height="30" viewBox="0 0 29 30" fill="none" xmlns="http://www.w3.org/2000/svg">
<path d="M28.203 9.76363C28.3906 10.2735 28.2323 10.842 27.828 11.2053L25.2904 13.5144C25.3548 14.0008 25.39 14.4989 25.39 15.0029C25.39 15.5069 25.3548 16.0051 25.2904 16.4915L27.828 18.8005C28.2323 19.1639 28.3906 19.7324 28.203 20.2422C27.9452 20.9396 27.6346 21.6077 27.2771 22.2524L27.0016 22.7271C26.6148 23.3718 26.1812 23.9812 25.7065 24.5556C25.3607 24.9775 24.7864 25.1182 24.2706 24.9541L21.0063 23.9168C20.221 24.5204 19.3537 25.0244 18.4277 25.4054L17.6951 28.7517C17.5779 29.285 17.1677 29.707 16.6285 29.7949C15.8198 29.9297 14.9876 30 14.1378 30C13.288 30 12.4558 29.9297 11.6471 29.7949C11.1079 29.707 10.6977 29.285 10.5805 28.7517L9.84789 25.4054C8.92192 25.0244 8.05457 24.5204 7.26926 23.9168L4.01081 24.96C3.49508 25.124 2.92075 24.9775 2.57498 24.5614C2.10028 23.9871 1.6666 23.3776 1.27981 22.733L1.00436 22.2583C0.64687 21.6136 0.336262 20.9455 0.0783995 20.2481C-0.109137 19.7382 0.0490969 19.1698 0.453473 18.8064L2.99108 16.4974C2.92661 16.0051 2.89145 15.5069 2.89145 15.0029C2.89145 14.4989 2.92661 14.0008 2.99108 13.5144L0.453473 11.2053C0.0490969 10.842 -0.109137 10.2735 0.0783995 9.76363C0.336262 9.06622 0.64687 8.39813 1.00436 7.75347L1.27981 7.27877C1.6666 6.63411 2.10028 6.02461 2.57498 5.45028C2.92075 5.02833 3.49508 4.88767 4.01081 5.05177L7.27512 6.08908C8.06043 5.48545 8.92778 4.98144 9.85375 4.60051L10.5863 1.25415C10.7035 0.720844 11.1138 0.298887 11.6529 0.210979C12.4617 0.0703262 13.2939 0 14.1436 0C14.9934 0 15.8256 0.0703262 16.6344 0.205118C17.1735 0.293026 17.5838 0.714983 17.701 1.24829L18.4336 4.59465C19.3595 4.97558 20.2269 5.47959 21.0122 6.08322L24.2765 5.04591C24.7922 4.88181 25.3665 5.02833 25.7123 5.44442C26.187 6.01875 26.6207 6.62825 27.0075 7.2729L27.2829 7.74761C27.6404 8.39226 27.951 9.06036 28.2089 9.75777L28.203 9.76363ZM14.1436 19.6913C15.3871 19.6913 16.5796 19.1974 17.4589 18.3181C18.3381 17.4389 18.8321 16.2464 18.8321 15.0029C18.8321 13.7595 18.3381 12.567 17.4589 11.6877C16.5796 10.8085 15.3871 10.3145 14.1436 10.3145C12.9002 10.3145 11.7077 10.8085 10.8284 11.6877C9.94919 12.567 9.45523 13.7595 9.45523 15.0029C9.45523 16.2464 9.94919 17.4389 10.8284 18.3181C11.7077 19.1974 12.9002 19.6913 14.1436 19.6913Z" fill="#36304A"/>
</svg>
